<svg xmlns="http://www.w3.org/2000/svg" width="60" height="60" viewBox="0 0 60 60"><g transform="translate(-5 -5)"><ellipse cx="30" cy="30" rx="30" ry="30" transform="translate(5 5)" fill="#387da7"/><path d="M54.75,53.16a36.315,36.315,0,0,1-39.5,0l.884-2.66c1.371-3.877,5.592-6.524,10.364-6.5h17c4.773-.024,8.993,2.623,10.364,6.5Z" transform="translate(0 6)" fill="#ffd2b4"/><path d="M54.75,53.16a36.315,36.315,0,0,1-39.5,0l.884-2.66c1.371-3.877,5.592-6.524,10.364-6.5h17c4.773-.024,8.993,2.623,10.364,6.5Z" transform="translate(0 6)" fill="#2a292a"/><path d="M36,39v5.76a2,2,0,0,1-1.11,1.8h0a6.46,6.46,0,0,1-5.78,0h0A2,2,0,0,1,28,44.76V39Z" transform="translate(3 4.458)" fill="#ffd2b4"/><path d="M35.66,51.28,35,58.83a26.9,26.9,0,0,1-6,0l-.64-7.55,3.66-4Z" transform="translate(3.001 6)" fill="#d1d3d4"/><path d="M32,15.21C43,15.21,42.1,26,42.1,26c1.62-.17,2.9.49,2.9,2.86s-1,2.86-2.26,3a.28.28,0,0,0-.26.27c-.38,3.69-2.9,6.39-5.38,8.2a8.59,8.59,0,0,1-10.19,0c-2.48-1.81-5-4.52-5.38-8.2a.28.28,0,0,0-.26-.27c-1.27-.13-2.26-.63-2.26-3s1.22-3,2.84-2.86C21.84,26,20.94,15.21,32,15.21Z" transform="translate(3.001 2.252)" fill="#ffd2b4"/><circle cx="1.7" cy="1.7" r="1.7" transform="translate(28.87 29.217)" fill="#2a292a"/><circle cx="1.7" cy="1.7" r="1.7" transform="translate(37.73 29.217)" fill="#2a292a"/><path d="M36,39v5.76a2,2,0,0,1-1.11,1.8h0a6.46,6.46,0,0,1-5.78,0h0A2,2,0,0,1,28,44.76V39Z" transform="translate(3 4.458)" fill="#ffd2b4"/><path d="M36,41.08v1.5a9.16,9.16,0,0,1-8,0v-1.5a9.16,9.16,0,0,0,8,0Z" transform="translate(3 4.197)" fill="#262234" opacity="0.1"/><path d="M42.61,25.13v3.75l-.81-.15a1.14,1.14,0,0,1-.92-1.12,17.5,17.5,0,0,0-.53-4.28,13.15,13.15,0,0,1-2.54-.86,15.53,15.53,0,0,0,1,1.83.39.39,0,0,1-.39.58,11.93,11.93,0,0,1-5.27-2,14.471,14.471,0,0,0,.5,1.43.38.38,0,0,1-.49.5,12.28,12.28,0,0,1-4.55-2.67,17.07,17.07,0,0,0,.5,1.75.39.39,0,0,1-.52.48,12.62,12.62,0,0,1-4.28-2.77h0a15,15,0,0,0-1.17,6,1.13,1.13,0,0,1-.91,1.11l-.81.15V25.13a10.61,10.61,0,0,1,21.22,0Z" transform="translate(3.005 1.441)" fill="#2a292a"/><path d="M33.12,50.67H30.88a1,1,0,0,1-1-.72l-.79-2.71h5.73l-.79,2.71A1,1,0,0,1,33.12,50.67Z" transform="translate(2.994 5.012)" fill="#be1e2d"/><path d="M33.67,59H30.33l1-9.14h1.34Z" transform="translate(3 6)" fill="#be1e2d"/><path d="M32,47.24l-3.66,4.04L26.18,44,28,42.12Z" transform="translate(2.638 6)" fill="#f1f2f2"/><path d="M32,47.24l3.66,4.04L37.82,44,36,42.12Z" transform="translate(3.362 6)" fill="#f1f2f2"/><path d="M18.17,25.38h2.46v7.39H18.17a1.92,1.92,0,0,1-1.92-1.92V27.29a1.92,1.92,0,0,1,1.92-1.91Z" transform="translate(1.36 2.623)" fill="#2a292a"/><path d="M20.19,25.38h1.13a.31.31,0,0,1,.31.31v6.77a.31.31,0,0,1-.31.31H20.19Z" transform="translate(1.734 2.623)" fill="#6d6e71"/><path d="M1.92,0H4.38V7.39H1.92A1.92,1.92,0,0,1,0,5.47V1.91A1.92,1.92,0,0,1,1.92,0Z" transform="translate(52.39 35.382) rotate(180)" fill="#2a292a"/><path d="M0,0H1.13a.31.31,0,0,1,.31.31V7.08a.31.31,0,0,1-.31.31H0Z" transform="translate(48.076 35.393) rotate(180)" fill="#6d6e71"/><path d="M41.12,36.47H32V35h9.12a2.7,2.7,0,0,0,2.7-2.7V25.13a11.815,11.815,0,0,0-23.63,0v4.29h-1.5V25.13a13.315,13.315,0,1,1,26.63,0v7.15a4.2,4.2,0,0,1-4.2,4.19Z" transform="translate(3.001)" fill="#2a292a"/><rect width="5.73" height="3.5" rx="0.94" transform="translate(32.27 37.378)" fill="#2a292a"/></g></svg>